<?xml version="1.0" encoding="utf-8"?>
<!-- Generator: Adobe Illustrator 24.0.0, SVG Export Plug-In . SVG Version: 6.00 Build 0)  -->
<svg version="1.1" id="graphics" xmlns="http://www.w3.org/2000/svg" xmlns:xlink="http://www.w3.org/1999/xlink" x="0px" y="0px"
	 viewBox="0 0 372 367.3" style="enable-background:new 0 0 372 367.3;" xml:space="preserve">
<style type="text/css">
	.st0{fill:#FFFFFF;}
</style>
<g>
	<g>
		<path class="st0" d="M177.3,4.1h-53.8v81.4H179c48.6,0,88.7,40.1,88.7,88.7s-40.1,88.7-88.7,88.7H90.2V118.8H8.8v217.1
			c0,4.7,3.8,8.5,8.5,8.5h161.6c96.2,0,174.5-81,169.9-178.2C344.5,75.2,268.4,4.1,177.3,4.1z"/>
	</g>
</g>
<g>
	<g>
		<polygon class="st0" points="8.8,85.4 12,85.4 15.4,85.4 15.4,53.1 15.4,27.1 8.8,25.5 8.8,55.5 		"/>
	</g>
</g>
<g>
	<g>
		<polygon class="st0" points="17.6,85.4 21.5,85.4 25.7,85.4 25.7,49.4 25.7,21.5 17.6,19.2 17.6,52.3 		"/>
	</g>
</g>
<g>
	<g>
		<path class="st0" d="M28.5,85.4c1.6,0,3.2,0,4.8,0c1.7,0,3.5,0,5.3,0c0-13.5,0-27.1,0-40.6s0-16.4,0-30l-10.1-3.4
			c0,12.3,0,24.7,0,37C28.5,60.8,28.5,73.1,28.5,85.4z"/>
	</g>
</g>
<g>
	<g>
		<path class="st0" d="M90.2,22.9c-2-0.8-4.1-1.6-6.2-2.4c-4.6-1.8-9.5-3.7-14.6-5.7C63.9,12.7,58.1,10.4,52,8
			c-3.1-1.2-6.3-2.5-9.7-3.8c0,4.4,0,8.8,0,13.2c0,9.2,0,18.3,0,27.5c0,9.1,0,18.3,0,27.5c0,4.4,0,8.8,0,13.2c3.3,0,6.5,0,9.7,0
			c6.2,0,12,0,17.5,0c5.2,0,10,0,14.6,0c2.1,0,4.2,0,6.2,0c0-3.4,0-6.8,0-10.2c0-7,0-14.1,0-21.1s0-14.1,0-21.1
			C90.2,29.6,90.2,26.3,90.2,22.9L90.2,22.9z M51.9,72.9c0-8.7,0-17.5,0-26.2s0-17.5,0-26.2c6.2,2,12,3.9,17.5,5.7
			c5.1,1.7,10,3.3,14.6,4.8c0,7.3,0,14.6,0,22c0,7.3,0,14.6,0,21.9c-4.6-0.3-9.5-0.6-14.6-0.9C63.9,73.6,58.1,73.3,51.9,72.9z"/>
	</g>
</g>
</svg>
